<?xml version="1.0" standalone="no"?>
<!DOCTYPE svg PUBLIC "-//W3C//DTD SVG 20010904//EN"
 "http://www.w3.org/TR/2001/REC-SVG-20010904/DTD/svg10.dtd">
<svg version="1.0" xmlns="http://www.w3.org/2000/svg"
 width="120.000000pt" height="120.000000pt" viewBox="0 0 120.000000 120.000000"
 preserveAspectRatio="xMidYMid meet">
<metadata>
Created by potrace 1.14, written by Peter Selinger 2001-2017
</metadata>
<g transform="translate(0.000000,120.000000) scale(0.100000,-0.100000)"
fill="#000000" stroke="none">
<path d="M20 1160 c0 -5 11 -10 24 -10 56 0 56 0 56 -542 0 -350 -3 -504 -11
-522 -7 -15 -23 -28 -40 -31 -60 -13 -24 -20 106 -20 131 0 166 7 105 20 -17
4 -35 15 -40 25 -6 11 -10 123 -10 269 l0 251 166 0 166 0 -4 -247 c-3 -270
-7 -287 -58 -298 -61 -13 -26 -20 105 -20 74 0 135 2 135 5 0 3 -15 12 -33 20
-18 9 -34 25 -38 40 -12 43 -10 961 2 1003 8 30 16 39 40 44 66 13 21 23 -106
23 -83 0 -135 -4 -135 -10 0 -5 11 -10 25 -10 16 0 31 -10 42 -27 16 -24 18
-53 18 -248 l0 -220 -162 -3 -163 -2 0 219 c0 121 4 231 10 246 6 17 20 27 40
31 67 14 22 24 -105 24 -83 0 -135 -4 -135 -10z"/>
<path d="M806 1139 c18 -20 19 -42 19 -541 0 -483 -1 -521 -17 -532 -10 -7
-18 -15 -18 -17 0 -2 41 -4 90 -4 50 0 90 2 90 4 0 2 -7 9 -16 15 -26 19 -33
88 -34 314 l0 212 68 0 c74 0 92 -11 123 -72 13 -24 14 -17 14 82 0 59 -3 106
-7 103 -5 -2 -8 -10 -8 -18 0 -7 -12 -23 -26 -34 -21 -17 -41 -21 -95 -21
l-69 0 0 209 c0 263 9 291 90 291 71 0 127 -51 154 -141 12 -42 13 -39 10 61
l-4 105 -192 3 -192 2 20 -21z"/>
</g>
</svg>
