<svg width="220" height="42" viewBox="0 0 220 42" fill="none" xmlns="http://www.w3.org/2000/svg">
<rect width="220" height="42" fill="#EE3643"/>
<path fill-rule="evenodd" clip-rule="evenodd" d="M159.848 14.6585V29.4498H157.735V14.6585H153.978V13.015H163.604V14.6585H159.848ZM151.712 23.3572C151.345 23.819 150.883 24.1476 150.327 24.3433C149.772 24.539 149.11 24.6368 148.343 24.6368C147.983 24.6368 147.576 24.6133 147.122 24.5663C146.668 24.5194 146.293 24.4646 145.995 24.402V29.4498H143.882V13.2498C144.477 13.0776 145.076 12.9563 145.678 12.8859C146.281 12.8155 146.935 12.7803 147.639 12.7803C148.578 12.7803 149.376 12.8781 150.034 13.0737C150.691 13.2694 151.223 13.5942 151.63 14.0481C152.037 14.502 152.335 15.1046 152.522 15.8559C152.71 16.6072 152.804 17.5385 152.804 18.6498C152.804 19.7924 152.714 20.7472 152.534 21.5142C152.354 22.2811 152.08 22.8955 151.712 23.3572ZM150.515 16.5368C150.398 15.9733 150.214 15.5272 149.963 15.1985C149.713 14.8698 149.396 14.639 149.012 14.5059C148.629 14.3729 148.171 14.3063 147.639 14.3063H145.995V22.9933H147.639C148.171 22.9933 148.629 22.9268 149.012 22.7937C149.396 22.6607 149.713 22.4298 149.963 22.1011C150.214 21.7724 150.398 21.3263 150.515 20.7629C150.632 20.1994 150.691 19.495 150.691 18.6498C150.691 17.8046 150.632 17.1003 150.515 16.5368ZM138.6 25.2237H133.904L132.848 29.4498H130.735L134.726 13.015H137.778L141.769 29.4498H139.656L138.6 25.2237ZM136.299 15.3629H136.205L134.256 23.5803H138.248L136.299 15.3629ZM126.156 17.2411H126.039L122.635 27.3368H120.522L117.117 17.2411H117L116.295 29.4498H114.182L115.122 13.015H117.704L121.531 24.2846H121.625L125.452 13.015H128.035L128.974 29.4498H126.861L126.156 17.2411ZM110.379 27.9237C109.941 28.5655 109.412 29.0194 108.794 29.2855C108.176 29.5516 107.468 29.6846 106.669 29.6846C105.871 29.6846 105.163 29.5516 104.545 29.2855C103.926 29.0194 103.398 28.5655 102.96 27.9237C102.522 27.282 102.189 26.4172 101.962 25.3294C101.735 24.2416 101.622 22.8759 101.622 21.2324C101.622 19.589 101.735 18.2233 101.962 17.1355C102.189 16.0476 102.522 15.1829 102.96 14.5411C103.398 13.8994 103.926 13.4455 104.545 13.1794C105.163 12.9133 105.871 12.7803 106.669 12.7803C107.468 12.7803 108.176 12.9133 108.794 13.1794C109.412 13.4455 109.941 13.8994 110.379 14.5411C110.817 15.1829 111.15 16.0476 111.377 17.1355C111.604 18.2233 111.717 19.589 111.717 21.2324C111.717 22.8759 111.604 24.2416 111.377 25.3294C111.15 26.4172 110.817 27.282 110.379 27.9237ZM109.358 17.7576C109.193 16.8498 108.978 16.1298 108.712 15.5976C108.446 15.0655 108.133 14.6976 107.773 14.4942C107.413 14.2907 107.045 14.189 106.669 14.189C106.294 14.189 105.926 14.2907 105.566 14.4942C105.206 14.6976 104.893 15.0655 104.627 15.5976C104.361 16.1298 104.145 16.8498 103.981 17.7576C103.817 18.6655 103.735 19.8237 103.735 21.2324C103.735 22.6411 103.817 23.7994 103.981 24.7072C104.145 25.615 104.361 26.335 104.627 26.8672C104.893 27.3994 105.206 27.7672 105.566 27.9707C105.926 28.1742 106.294 28.2759 106.669 28.2759C107.045 28.2759 107.413 28.1742 107.773 27.9707C108.133 27.7672 108.446 27.3994 108.712 26.8672C108.978 26.335 109.193 25.615 109.358 24.7072C109.522 23.7994 109.604 22.6411 109.604 21.2324C109.604 19.8237 109.522 18.6655 109.358 17.7576ZM96.6911 21.9368H91.7606V29.4498H89.6476V13.015H91.7606V20.2933H96.6911V13.015H98.8041V29.4498H96.6911V21.9368ZM85.5397 29.4498L82.6049 22.4063L79.6701 29.4498H77.5571L81.0788 20.9976L77.9092 13.015H80.0223L82.6049 19.589L85.1875 13.015H87.3005L84.131 20.9976L87.6527 29.4498H85.5397ZM68.2832 13.015H76.2658V14.6585H70.3962V20.0585H75.5614V21.702H70.3962V27.8063H76.2658V29.4498H68.2832V13.015ZM62.6484 29.4498H60.5353V14.6585H56.7788V13.015H66.4049V14.6585H62.6484V29.4498Z" fill="white"/>
</svg>
